<svg version="1.2" xmlns="http://www.w3.org/2000/svg" viewBox="0 0 1563 435" width="1563" height="435">
	<title>logo (21)-svg-svg</title>
	<style>
		.s0 { fill: #0099cd } 
		.s1 { fill: #bad9eb } 
		.s2 { fill: #1c3664 } 
	</style>
	<g id="Layer">
		<path id="Layer" fill-rule="evenodd" class="s0" d="m64.7 243.4c0 0 25.6 6.8 31.6-4.5 14.1-26.2-26.4-110.3-26.4-110.3 0 0 47.1 108.9 100.9 159.2 29.5 27.7 63.5 29.3 86.9 16.6 47.5-25.6 111.2-153.3 118.2-166.2 7.2-12.9-46.3 115.6-64.9 144.5-18.7 28.9-34.7 62.2-95.1 64.1-72.3 2.4-151.2-103.4-151.2-103.4z"/>
		<path id="Layer" fill-rule="evenodd" class="s1" d="m0.8 160.7c0-6.7 2.7-13.3 7.4-18 4.7-4.7 11.3-7.6 18-7.6 6.8 0 13.1 2.9 18 7.6 4.8 4.7 7.4 11.3 7.4 18 0 6.8-2.6 13.1-7.4 17.8-4.9 4.9-11.2 7.6-18 7.6-6.7 0-13.3-2.7-18-7.6-4.7-4.7-7.4-11-7.4-17.8z"/>
		<g id="Layer">
			<g id="Clip-Path">
				<path id="Layer" fill-rule="evenodd" class="s2" d="m246 1.5c3.3-0.9 47.5-12.3 40 78.1-9 106.7-219.6 357.7-218 355.2 142-220.3 181.3-326.1 184.6-336.5 3.1-10.3 11.5-38.5-8.4-44.9-24.4-7.7-111.3 70.1-111.3 70.1 0 0 42.5-44.5 57.2-61 14.7-16.8 15.8-23.6 10.2-30.3-2.4-3.3-21.1 3.2-21.1 3.2 0 0 29.1-26.6 66.8-33.9z"/>
			</g>
		</g>
		<path id="Layer" fill-rule="evenodd" class="s2" d="m496.6 99.1h7.7l107 246.9h-20.9l-36.3-85.2h-107.5l-36.3 85.2h-20.7zm50.8 145.1l-46.9-111.2-46.9 111.2z"/>
		<g id="Clip-Path">
			<path id="Layer" fill-rule="evenodd" class="s2" d="m646.3 101.3h18.4v244.7h-18.4zm71.5 83.1h17.8v25.8c15.6-19.1 33.8-28.7 55.9-28.7 36.7 0 57.6 23.7 57.6 65.9v98.5h-18v-89.9c0-38.7-13.3-57.9-41.2-57.9-22.3 0-40.6 11.4-54.3 34v113.8h-17.8zm159.2 0h20l57.4 109.9 53.9-109.9h18.6l-119 242.9h-18.4l55.3-113zm177.8-83.1h18.4v244.9h-18.4zm101.2 248c-26.9 0-44.9-17.1-44.9-41.5 0-35 32.4-56.9 94-59.4v-17.2c0-23.9-10.8-34.8-36.2-34.8-16.6 0-32 6.8-49.6 19.7v-17.4c17.6-11.9 34.2-18 51-18 37.9 0 52.7 17.2 52.7 54.8v84.6c0 7.1 1.8 10.4 5.7 10.4 5.1 0 9.8-5.1 18.4-12.7v16.6c-10.4 9.6-19.4 14.7-26.2 14.7-10.4 0-14.7-5.7-15.4-19-17 12.9-31.7 19.2-49.5 19.2zm49.1-86.5c-48.7 0.6-75.8 19.2-75.8 44.4 0 16.4 11.9 26.8 31.6 26.8 14.1 0 28.1-7.2 44.2-20.7zm70.7-78.4h17.8v25.8c14.8-19 32.4-28.8 53.9-28.8 24 0 39.1 9.8 50.2 33.1 17.6-22.3 35.4-33.1 58-33.1 35.2 0 55.3 23.7 55.3 66.1v98.4h-18.3v-89.8c0-38.9-12.7-58.2-39.1-58.2-21.1 0-38.7 11.5-51.2 34v114h-18v-89.8c0-38.9-12.9-58.2-39.4-58.2-21.3 0-38.5 11.5-51.4 34v114h-17.8zm280.6-26.2c3.9 3.9 6.2 9.2 6.2 15 0 5.7-2.3 10.8-6.2 14.7q-1.4 1.4-3.2 2.7-1.7 1.2-3.7 2-1.9 0.8-3.9 1.2-2.1 0.5-4.3 0.5c-5.5 0-10.7-2.3-14.8-6.4q-1.4-1.4-2.6-3.1-1.3-1.8-2.1-3.6-0.8-1.9-1.2-3.9-0.4-2.1-0.4-4.1c0-5.8 2.2-10.9 6.3-15.2q1.5-1.4 3.3-2.6 1.7-1.1 3.5-1.9 2.1-0.8 4.1-1.2 1.8-0.4 3.9-0.4c5.9 0 11.1 2.2 15.1 6.3zm-1.4 1.5q-1.4-1.5-2.9-2.5-1.6-1-3.4-1.6-1.7-0.9-3.5-1.3-1.9-0.2-3.9-0.2c-5.1 0-9.8 1.9-13.3 5.4-3.5 3.8-5.6 8.6-5.6 13.7 0 4.9 2.1 9.6 5.6 13.3 3.7 3.7 8.4 5.5 13.3 5.5 5.1 0 9.8-1.8 13.7-5.5q1.2-1.5 2.3-2.9 1-1.6 1.8-3.3 0.6-1.6 1-3.4 0.4-1.9 0.4-3.7c0-5.4-2-10.1-5.5-13.5zm-2.9 7.5c0 3.5-2.2 6-5.9 6.4l5.5 11.4h-3.6l-5.4-10.8h-6.1v10.8h-3.3v-24.5h8.8c6.8 0 10 2 10 6.7zm-15.5-4.5v9.2h4.7c5.3 0 7.4-1 7.4-4.7 0-3-2.5-4.5-7.4-4.5z"/>
		</g>
	</g>
</svg>